<svg xmlns="http://www.w3.org/2000/svg" width="24" height="18" viewBox="0 0 24 18">
  <defs>
    <style>
      .cls-1 {
        fill: #f9f9f9;
        fill-rule: evenodd;
      }
    </style>
  </defs>
  <path id="arrival.svg" class="cls-1" d="M899.82,991.628h0a0.58,0.58,0,0,0-.656.451,0.611,0.611,0,0,0,.379.721l8.1,2.814-2.693,1.121a0.491,0.491,0,0,0-.293.507,0.482,0.482,0,0,0,.39.431l1.765,0.3a0.437,0.437,0,0,0,.153,0l6.709-1.166,6.461,1.1c2.47,0.385,2.812-.537,2.858-0.828a1.334,1.334,0,0,0-.308-1.015,4.962,4.962,0,0,0-1.7-1.288,2.722,2.722,0,0,1-.545-0.367c-0.487-.4-0.849-0.632-3.176-1.033l-12.726-2.188-2.173-4.705a0.582,0.582,0,0,0-.428-0.334l-0.832-.143a0.561,0.561,0,0,0-.476.142,0.619,0.619,0,0,0-.2.475l0.167,5.138Zm21.949,10.062H900.1a1.156,1.156,0,0,0,0,2.31h21.666A1.156,1.156,0,0,0,921.769,1001.69Z" transform="translate(-899 -986)"/>
</svg>
