<svg xmlns="http://www.w3.org/2000/svg" width="24.84" height="14.062" viewBox="0 0 24.84 14.062">
  <defs>
    <style>
      .cls-1 {
        fill: #aaa;
        fill-rule: evenodd;
      }
    </style>
  </defs>
  <path id="departure.svg" class="cls-1" d="M1294.25,995.8h0a0.572,0.572,0,0,0-.45.657,0.606,0.606,0,0,0,.61.535l8.57-.3-2.11,2.019a0.5,0.5,0,0,0-.09.579,0.479,0.479,0,0,0,.52.26l1.76-.355a0.41,0.41,0,0,0,.14-0.055l5.83-3.513,6.42-1.311c2.45-.534,2.43-1.517,2.37-1.8a1.34,1.34,0,0,0-.65-0.835,4.983,4.983,0,0,0-2.06-.585,2.738,2.738,0,0,1-.64-0.145c-0.6-.2-1.02-0.282-3.33.186l-12.66,2.56-3.73-3.6a0.58,0.58,0,0,0-.52-0.157l-0.82.168a0.577,0.577,0,0,0-.4.3,0.615,0.615,0,0,0-.01.514l2.02,4.73Zm21.52,5.893H1294.1a1.156,1.156,0,0,0,0,2.31h21.67A1.156,1.156,0,0,0,1315.77,1001.69Z" transform="translate(-1292.97 -989.938)"/>
</svg>
