<svg xmlns="http://www.w3.org/2000/svg" width="59" height="73" viewBox="0 0 59 73">
  <defs>
    <style>
      .cls-1 {
        fill: gray;
        fill-rule: evenodd;
      }
    </style>
  </defs>
  <path id="disability.svg" class="cls-1" d="M1107.43,1887.39a7.2,7.2,0,1,0-7.2-7.2A7.2,7.2,0,0,0,1107.43,1887.39Zm11.13,40.76a15.915,15.915,0,1,1-21.7-18.94v-6.74a22.236,22.236,0,1,0,26.6,30.59l-2.51-4.93C1120.24,1928.14,1119.42,1928.14,1118.56,1928.15Zm20.98,8.54-9.65-18.94a4.214,4.214,0,0,0-3.77-2.31h-12.35v-2.82h10.63a3.1,3.1,0,0,0,2.53-1.35,3.068,3.068,0,0,0,.64-1.82,3.156,3.156,0,0,0-3.17-3.16h-10.63v-9.55a6.34,6.34,0,1,0-12.68,0v20.68a6.459,6.459,0,0,0,6.47,6.46h15.97l8.47,16.64a4.223,4.223,0,0,0,3.77,2.31,4.269,4.269,0,0,0,1.92-.46A4.222,4.222,0,0,0,1139.54,1936.69Z" transform="translate(-1081 -1873)"/>
</svg>
