<svg xmlns="http://www.w3.org/2000/svg" width="73" height="73" viewBox="0 0 73 73">
  <defs>
    <style>
      .cls-1 {
        fill: gray;
        fill-rule: evenodd;
      }
    </style>
  </defs>
  <path id="FAQ.svg" class="cls-1" d="M1439.7,1873h-58.4a7.315,7.315,0,0,0-7.3,7.3v58.4a7.321,7.321,0,0,0,7.3,7.3h58.4a7.328,7.328,0,0,0,7.3-7.3v-58.4A7.321,7.321,0,0,0,1439.7,1873Zm1.46,65.7a1.481,1.481,0,0,1-1.46,1.46h-58.4a1.481,1.481,0,0,1-1.46-1.46v-58.4a1.481,1.481,0,0,1,1.46-1.46h58.4a1.481,1.481,0,0,1,1.46,1.46v58.4Zm-31.05-15.6a4.783,4.783,0,0,0-3.47,1.39,4.572,4.572,0,0,0-1.41,3.41,4.484,4.484,0,0,0,1.46,3.55,5.058,5.058,0,0,0,3.42,1.26,4.936,4.936,0,0,0,3.35-1.29,4.482,4.482,0,0,0,1.44-3.52A4.747,4.747,0,0,0,1410.11,1923.1Zm9-37.29a18.567,18.567,0,0,0-8.22-1.73,18.067,18.067,0,0,0-8.77,2.05,15.021,15.021,0,0,0-5.72,5.2,11.621,11.621,0,0,0-1.96,6.18,3.942,3.942,0,0,0,1.24,2.76,4.135,4.135,0,0,0,3.03,1.25q3.06,0,4.15-3.63a14.164,14.164,0,0,1,2.83-5.24q1.665-1.785,5.2-1.79a7.021,7.021,0,0,1,4.93,1.76,5.726,5.726,0,0,1,1.91,4.35,4.877,4.877,0,0,1-.63,2.42,8.826,8.826,0,0,1-1.54,2.04c-0.61.62-1.61,1.53-2.97,2.73a46.516,46.516,0,0,0-3.72,3.54,11.569,11.569,0,0,0-2.22,3.48,11.842,11.842,0,0,0-.84,4.67,4.241,4.241,0,0,0,1.15,3.24,3.9,3.9,0,0,0,2.8,1.09c2.14,0,3.41-1.12,3.83-3.34,0.23-1.04.41-1.77,0.52-2.2a7.943,7.943,0,0,1,.5-1.25,7.577,7.577,0,0,1,.99-1.38,23.335,23.335,0,0,1,1.74-1.76c2.64-2.35,4.45-4.02,5.48-5.02a14.373,14.373,0,0,0,2.63-3.55,9.936,9.936,0,0,0,1.11-4.79,11.3,11.3,0,0,0-1.95-6.41A13.259,13.259,0,0,0,1419.11,1885.81Z" transform="translate(-1374 -1873)"/>
</svg>
