<svg xmlns="http://www.w3.org/2000/svg" width="90" height="83" viewBox="0 0 90 83">
  <defs>
    <style>
      .cls-1 {
        fill: #fff;
        fill-rule: evenodd;
      }
    </style>
  </defs>
  <path id="information.svg" class="cls-1" d="M535.712,1951.77h-2.406v7.18h2.409A3.59,3.59,0,1,0,535.712,1951.77Zm-49.022,0-6.018,3.59,6.018,3.59H530.9v-7.18H486.69Zm61.879-75.83H471.433a6.414,6.414,0,0,0-6.433,6.39v57.36a6.406,6.406,0,0,0,6.429,6.39h77.139a6.413,6.413,0,0,0,6.432-6.39v-57.36A6.408,6.408,0,0,0,548.569,1875.94Zm0,17.54v46.21H471.428v-30.38h0v-15.49h77.137v4.83Zm-20.727,7.69c2.246-2.55,6.051-2.37,8.647-1.72a5.836,5.836,0,0,1,2.945,1.83c0.527,0.73,1.524,2.27,1.311,3.15a1.222,1.222,0,0,0-.057,1.19c0.361,0.48,1.924,2.54,1.924,2.54a0.465,0.465,0,0,1-.181.75,0.846,0.846,0,0,0-.608.84c0,0.32.5,1,.016,1.19,0,0-.5.18-0.374,0.31a4.633,4.633,0,0,0,.5.36,0.419,0.419,0,0,1-.143.55,1.1,1.1,0,0,0-.485.91,4.438,4.438,0,0,0,.249,1.12c0.056,0.19.29,1.06-1.257,1.35s-1.834-.23-2.264,1.3c0,0-.073,1.62-0.073,1.8h-6.857v-1.91a8.438,8.438,0,0,0-.272-1.78l-0.5-1.31a2.151,2.151,0,0,0-1.241-1.14,8.776,8.776,0,0,1-2.676-2.09A8.37,8.37,0,0,1,527.84,1901.17ZM478,1928.65h39.8a1.54,1.54,0,1,0,0-3.08H478A1.54,1.54,0,1,0,478,1928.65Zm0,6.41h39.8a1.54,1.54,0,1,0,0-3.08H478A1.54,1.54,0,1,0,478,1935.06Zm-1.55-35.71h42.9v13.4h-42.9v-13.4Zm1.55,22.89h39.8a1.54,1.54,0,1,0,0-3.08H478A1.54,1.54,0,1,0,478,1922.24Zm48.083,12.82H542a1.54,1.54,0,1,0,0-3.08H526.087A1.54,1.54,0,1,0,526.087,1935.06Zm0-6.41H542a1.54,1.54,0,1,0,0-3.08H526.087A1.54,1.54,0,1,0,526.087,1928.65Z" transform="translate(-465 -1875.94)"/>
</svg>
