<svg xmlns="http://www.w3.org/2000/svg" width="99" height="73" viewBox="0 0 99 73">
  <defs>
    <style>
      .cls-1 {
        fill: gray;
        fill-rule: evenodd;
      }
    </style>
  </defs>
  <path id="parking.svg" class="cls-1" d="M831.206,1902.77a3.678,3.678,0,0,0-.973.14l-3.695,1.04-3.836-9.51a8.368,8.368,0,0,0-7.163-4.89H779.63a8.365,8.365,0,0,0-7.163,4.89l-3.831,9.49-3.65-1.02a3.665,3.665,0,0,0-.972-0.14A3.025,3.025,0,0,0,761,1906v2.22a3.924,3.924,0,0,0,3.891,3.95h0.418l-0.619,1.54a30.13,30.13,0,0,0-1.832,9.44v18.89a3.933,3.933,0,0,0,3.891,3.96h5.083a3.933,3.933,0,0,0,3.891-3.96v-4.72h43.722v4.72a3.933,3.933,0,0,0,3.892,3.96h5.081a3.933,3.933,0,0,0,3.892-3.96v-18.89a30.158,30.158,0,0,0-1.832-9.44l-0.62-1.54h0.47a3.925,3.925,0,0,0,3.892-3.95V1906A3.026,3.026,0,0,0,831.206,1902.77Zm-59.781,7.25,5.8-14.38a5.035,5.035,0,0,1,4.295-2.93h32.12a5.034,5.034,0,0,1,4.295,2.93l5.805,14.38a1.97,1.97,0,0,1-1.931,2.93H773.356A1.97,1.97,0,0,1,771.425,1910.02Zm12.957,18.19a1.575,1.575,0,0,1-1.556,1.59H771.8a1.574,1.574,0,0,1-1.557-1.59v-5.38a1.572,1.572,0,0,1,1.557-1.58h11.026a1.573,1.573,0,0,1,1.556,1.58v5.38Zm40.439,0a1.575,1.575,0,0,1-1.556,1.59H812.239a1.574,1.574,0,0,1-1.556-1.59v-5.38a1.572,1.572,0,0,1,1.556-1.58h11.026a1.573,1.573,0,0,1,1.556,1.58v5.38ZM855.133,1873H836.7a4.914,4.914,0,0,0-4.867,4.95v18.75a4.915,4.915,0,0,0,4.867,4.95h7.4v42.08a1.817,1.817,0,1,0,3.633,0v-42.08h7.4A4.914,4.914,0,0,0,860,1896.7v-18.75A4.914,4.914,0,0,0,855.133,1873Zm-4.175,15.54a6.627,6.627,0,0,1-4.64,1.47h-2.669a0.583,0.583,0,0,0-.581.59v4.58a0.9,0.9,0,0,1-.887.9H840.16a0.9,0.9,0,0,1-.887-0.9v-15.71a0.9,0.9,0,0,1,.887-0.9h5.091c3.373,0,4.633.52,5.667,1.41a5.388,5.388,0,0,1,1.644,4.29A5.512,5.512,0,0,1,850.958,1888.54Zm-2.889-6.18a4.394,4.394,0,0,0-2.589-.57h-1.831a0.59,0.59,0,0,0-.581.59v3.77a0.59,0.59,0,0,0,.581.59h1.1c0.4,0,1.054-.03,1.451-0.07a5.1,5.1,0,0,0,1.872-.5A2.871,2.871,0,0,0,848.069,1882.36Z" transform="translate(-761 -1873)"/>
</svg>
